<svg xmlns="http://www.w3.org/2000/svg" xmlns:xlink="http://www.w3.org/1999/xlink" width="107.646" height="20.902" viewBox="0 0 107.646 20.902">
  <defs>
    <clipPath id="clip-path">
      <rect id="Retângulo_905" data-name="Retângulo 905" width="4.617" height="2.694" transform="translate(136.942 17.723)" fill="none"/>
    </clipPath>
    <linearGradient id="linear-gradient" x1="-27.267" y1="7.321" x2="-27.067" y2="7.321" gradientUnits="objectBoundingBox">
      <stop offset="0" stop-color="#2c8c9d"/>
      <stop offset="0.04" stop-color="#298e9a"/>
      <stop offset="0.39" stop-color="#129c83"/>
      <stop offset="0.72" stop-color="#05a475"/>
      <stop offset="1" stop-color="#00a770"/>
    </linearGradient>
    <clipPath id="clip-path-2">
      <rect id="Retângulo_907" data-name="Retângulo 907" width="4.617" height="2.694" transform="translate(136.942 21.474)" fill="none"/>
    </clipPath>
    <linearGradient id="linear-gradient-2" x1="-25.592" y1="4.908" x2="-25.405" y2="4.908" gradientUnits="objectBoundingBox">
      <stop offset="0" stop-color="#2839ba"/>
      <stop offset="1" stop-color="#148cb3"/>
    </linearGradient>
    <clipPath id="clip-path-3">
      <rect id="Retângulo_909" data-name="Retângulo 909" width="4.616" height="2.694" transform="translate(120.208 25.226)" fill="none"/>
    </clipPath>
    <linearGradient id="linear-gradient-3" x1="-26.042" y1="6.464" x2="-25.825" y2="6.464" gradientUnits="objectBoundingBox">
      <stop offset="0" stop-color="#f6a500"/>
      <stop offset="1" stop-color="#f29100"/>
    </linearGradient>
    <clipPath id="clip-path-4">
      <rect id="Retângulo_911" data-name="Retângulo 911" width="4.617" height="2.694" transform="translate(125.785 25.226)" fill="none"/>
    </clipPath>
    <linearGradient id="linear-gradient-4" x1="-27.244" y1="6.464" x2="-27.027" y2="6.464" gradientUnits="objectBoundingBox">
      <stop offset="0" stop-color="#f29100"/>
      <stop offset="1" stop-color="#d12f5f"/>
    </linearGradient>
    <clipPath id="clip-path-5">
      <rect id="Retângulo_913" data-name="Retângulo 913" width="4.616" height="2.694" transform="translate(131.365 25.226)" fill="none"/>
    </clipPath>
    <linearGradient id="linear-gradient-5" x1="-28.459" y1="6.464" x2="-28.242" y2="6.464" gradientUnits="objectBoundingBox">
      <stop offset="0" stop-color="#b4197c"/>
      <stop offset="1" stop-color="#472ead"/>
    </linearGradient>
    <clipPath id="clip-path-6">
      <rect id="Retângulo_915" data-name="Retângulo 915" width="4.617" height="2.694" transform="translate(136.942 25.226)" fill="none"/>
    </clipPath>
    <linearGradient id="linear-gradient-6" x1="-29.66" y1="6.464" x2="-29.444" y2="6.464" gradientUnits="objectBoundingBox">
      <stop offset="0" stop-color="#2839ba"/>
      <stop offset="1" stop-color="#3072b7"/>
    </linearGradient>
    <clipPath id="clip-path-7">
      <rect id="Retângulo_917" data-name="Retângulo 917" width="4.616" height="2.694" transform="translate(131.365 21.474)" fill="none"/>
    </clipPath>
    <linearGradient id="linear-gradient-7" x1="-25.273" y1="5.607" x2="-25.08" y2="5.607" gradientUnits="objectBoundingBox">
      <stop offset="0" stop-color="#b4197c"/>
      <stop offset="1" stop-color="#373aac"/>
    </linearGradient>
    <clipPath id="clip-path-8">
      <rect id="Retângulo_919" data-name="Retângulo 919" width="4.617" height="2.694" transform="translate(125.785 21.474)" fill="none"/>
    </clipPath>
    <linearGradient id="linear-gradient-8" x1="-30.665" y1="4.268" x2="-30.422" y2="4.268" gradientUnits="objectBoundingBox">
      <stop offset="0" stop-color="#ffcb00"/>
      <stop offset="1" stop-color="#d12f5f"/>
    </linearGradient>
    <clipPath id="clip-path-9">
      <rect id="Retângulo_921" data-name="Retângulo 921" width="4.617" height="2.694" transform="translate(125.785 17.723)" fill="none"/>
    </clipPath>
    <linearGradient id="linear-gradient-9" x1="-24.562" y1="5.016" x2="-24.366" y2="5.016" gradientUnits="objectBoundingBox">
      <stop offset="0" stop-color="#ffcf00"/>
      <stop offset="1" stop-color="#ed743b"/>
    </linearGradient>
  </defs>
  <g id="Grupo_3852" data-name="Grupo 3852" transform="translate(-1156.448 -492.276)">
    <g id="Grupo_3790" data-name="Grupo 3790" transform="translate(1036.24 484.948)">
      <g id="Grupo_3789" data-name="Grupo 3789" clip-path="url(#clip-path)">
        <rect id="Retângulo_904" data-name="Retângulo 904" width="5.015" height="3.456" transform="translate(136.481 17.804) rotate(-10.01)" fill="url(#linear-gradient)"/>
      </g>
    </g>
    <g id="Grupo_3792" data-name="Grupo 3792" transform="translate(1036.24 484.948)">
      <g id="Grupo_3791" data-name="Grupo 3791" clip-path="url(#clip-path-2)">
        <rect id="Retângulo_906" data-name="Retângulo 906" width="5.337" height="4.497" transform="matrix(0.891, -0.454, 0.454, 0.891, 135.852, 22.029)" fill="url(#linear-gradient-2)"/>
      </g>
    </g>
    <g id="Grupo_3794" data-name="Grupo 3794" transform="translate(1036.24 484.948)">
      <g id="Grupo_3793" data-name="Grupo 3793" clip-path="url(#clip-path-3)">
        <rect id="Retângulo_908" data-name="Retângulo 908" width="4.616" height="2.694" transform="translate(120.208 25.226)" fill="url(#linear-gradient-3)"/>
      </g>
    </g>
    <g id="Grupo_3796" data-name="Grupo 3796" transform="translate(1036.24 484.948)">
      <g id="Grupo_3795" data-name="Grupo 3795" clip-path="url(#clip-path-4)">
        <rect id="Retângulo_910" data-name="Retângulo 910" width="4.617" height="2.694" transform="translate(125.785 25.226)" fill="url(#linear-gradient-4)"/>
      </g>
    </g>
    <g id="Grupo_3798" data-name="Grupo 3798" transform="translate(1036.24 484.948)">
      <g id="Grupo_3797" data-name="Grupo 3797" clip-path="url(#clip-path-5)">
        <rect id="Retângulo_912" data-name="Retângulo 912" width="4.616" height="2.694" transform="translate(131.365 25.226)" fill="url(#linear-gradient-5)"/>
      </g>
    </g>
    <g id="Grupo_3800" data-name="Grupo 3800" transform="translate(1036.24 484.948)">
      <g id="Grupo_3799" data-name="Grupo 3799" clip-path="url(#clip-path-6)">
        <rect id="Retângulo_914" data-name="Retângulo 914" width="4.617" height="2.694" transform="translate(136.942 25.226)" fill="url(#linear-gradient-6)"/>
      </g>
    </g>
    <g id="Grupo_3802" data-name="Grupo 3802" transform="translate(1036.24 484.948)">
      <g id="Grupo_3801" data-name="Grupo 3801" clip-path="url(#clip-path-7)">
        <rect id="Retângulo_916" data-name="Retângulo 916" width="5.187" height="3.881" transform="matrix(0.96, -0.281, 0.281, 0.96, 130.639, 21.686)" fill="url(#linear-gradient-7)"/>
      </g>
    </g>
    <g id="Grupo_3804" data-name="Grupo 3804" transform="translate(1036.24 484.948)">
      <g id="Grupo_3803" data-name="Grupo 3803" clip-path="url(#clip-path-8)">
        <rect id="Retângulo_918" data-name="Retângulo 918" width="4.11" height="5.26" transform="translate(124.919 23.853) rotate(-70.008)" fill="url(#linear-gradient-8)"/>
      </g>
    </g>
    <g id="Grupo_3806" data-name="Grupo 3806" transform="translate(1036.24 484.948)">
      <g id="Grupo_3805" data-name="Grupo 3805" clip-path="url(#clip-path-9)">
        <rect id="Retângulo_920" data-name="Retângulo 920" width="5.111" height="5.22" transform="matrix(0.678, -0.735, 0.735, 0.678, 124.442, 19.177)" fill="url(#linear-gradient-9)"/>
      </g>
    </g>
    <path id="Caminho_1976" data-name="Caminho 1976" d="M182.483,24.991a3.375,3.375,0,0,1-3.679-3.326h9.482a7.906,7.906,0,0,0,.186-1.707c0-3.828-2.62-6.271-6.476-6.271a6.887,6.887,0,0,0-6.948,7.182,7.025,7.025,0,0,0,7.389,7.361,6.45,6.45,0,0,0,6.507-4.359l-3.222-1.258a3.037,3.037,0,0,1-3.239,2.378m-.5-8.272c1.673,0,2.826.913,2.826,2.326l-.03.117H178.8a3.138,3.138,0,0,1,3.179-2.443" transform="translate(1036.24 484.948)"/>
    <path id="Caminho_1977" data-name="Caminho 1977" d="M201.5,17.072V13.98H189.339v3.239h7.419L189.1,24.7v3.237h12.6V24.548h-7.89Z" transform="translate(1036.24 484.948)"/>
    <path id="Caminho_1978" data-name="Caminho 1978" d="M224.2,18.486a5.137,5.137,0,0,1-.046.7h3.571a7,7,0,0,0,.125-1.378,3.832,3.832,0,0,0-4-4.122,3.475,3.475,0,0,0-3.356,2.09V13.983h-3.767V27.927h3.767V18.956c0-1.413.766-2.207,1.943-2.207a1.662,1.662,0,0,1,1.766,1.737" transform="translate(1036.24 484.948)"/>
    <path id="Caminho_1979" data-name="Caminho 1979" d="M156.368,16.072a4.994,4.994,0,0,0-4.416-2.385c-3.828,0-6.624,2.945-6.624,7.331,0,4.326,2.768,7.212,6.712,7.212a5.1,5.1,0,0,0,4.475-2.3v2h3.62V7.328h-3.767ZM152.8,25.03a3.692,3.692,0,0,1-3.718-4c0-2.5,1.619-4.09,3.718-4.09a3.779,3.779,0,0,1,3.709,4.09,3.724,3.724,0,0,1-3.709,4" transform="translate(1036.24 484.948)"/>
    <path id="Caminho_1980" data-name="Caminho 1980" d="M209.321,24.991a3.375,3.375,0,0,1-3.679-3.326h9.482a7.906,7.906,0,0,0,.186-1.707c0-3.828-2.62-6.271-6.476-6.271a6.887,6.887,0,0,0-6.948,7.182,7.025,7.025,0,0,0,7.389,7.361,6.45,6.45,0,0,0,6.507-4.359l-3.224-1.258a3.032,3.032,0,0,1-3.237,2.378m-.5-8.272c1.673,0,2.826.913,2.826,2.326l-.03.117h-5.979a3.144,3.144,0,0,1,3.183-2.443" transform="translate(1036.24 484.948)"/>
    <path id="Caminho_1981" data-name="Caminho 1981" d="M168.57,24.991a3.375,3.375,0,0,1-3.679-3.326h9.482a7.713,7.713,0,0,0,.176-1.707c0-3.828-2.619-6.271-6.475-6.271a6.887,6.887,0,0,0-6.948,7.182,7.025,7.025,0,0,0,7.388,7.361,6.451,6.451,0,0,0,6.508-4.359l-3.213-1.258a3.037,3.037,0,0,1-3.239,2.378m-.5-8.272c1.673,0,2.826.913,2.826,2.326l-.03.117h-5.975a3.138,3.138,0,0,1,3.179-2.443" transform="translate(1036.24 484.948)"/>
  </g>
</svg>
