<?xml version="1.0" encoding="utf-8"?>
<!-- Generator: Adobe Illustrator 24.3.0, SVG Export Plug-In . SVG Version: 6.00 Build 0)  -->
<svg version="1.1" id="Camada_1" xmlns="http://www.w3.org/2000/svg" xmlns:xlink="http://www.w3.org/1999/xlink" x="0px" y="0px"
	 viewBox="0 0 33 34.81" style="enable-background:new 0 0 33 34.81;" xml:space="preserve">
<style type="text/css">
	.st0{fill:#79B2ED;}
</style>
<g>
	<path class="st0" d="M31.75,34.81H1.25C0.56,34.81,0,34.25,0,33.56c0-5.09,2.41-9.99,6.45-13.09C7,20.05,7.78,20.16,8.2,20.7
		c0.42,0.55,0.32,1.33-0.23,1.75c-3.1,2.38-5.06,5.99-5.41,9.85h27.88c-0.35-3.86-2.32-7.48-5.41-9.85
		c-0.55-0.42-0.65-1.21-0.23-1.75c0.42-0.55,1.21-0.65,1.75-0.23c4.04,3.1,6.45,7.99,6.45,13.09C33,34.25,32.44,34.81,31.75,34.81z
		 M16.52,19.56c-3.3,0-6.52-1.67-8.36-4.68C5.34,10.28,6.8,4.25,11.4,1.43C16-1.38,22.04,0.08,24.85,4.68
		c0.64,1.05,1.07,2.19,1.29,3.4c0.03,0.16,0.05,0.33,0.08,0.51c0.08,0.69-0.41,1.31-1.09,1.39s-1.31-0.41-1.39-1.09
		c-0.01-0.12-0.03-0.24-0.05-0.36c-0.16-0.91-0.48-1.76-0.96-2.54c-2.09-3.42-6.58-4.51-10.01-2.42c-3.43,2.09-4.51,6.58-2.42,10.01
		C12.38,17,16.87,18.09,20.3,16c0.59-0.36,1.36-0.17,1.72,0.42c0.36,0.59,0.17,1.36-0.42,1.72C20.01,19.1,18.25,19.56,16.52,19.56z
		 M25.69,14.03h-4.43c-0.69,0-1.25-0.56-1.25-1.25s0.56-1.25,1.25-1.25h4.43c1.26,0,2.28-1.02,2.28-2.28V7.46
		c0-0.69,0.56-1.25,1.25-1.25s1.25,0.56,1.25,1.25v1.78C30.47,11.88,28.33,14.03,25.69,14.03z"/>
</g>
</svg>
