<svg xmlns="http://www.w3.org/2000/svg" width="20.949" height="21.619" viewBox="0 0 20.949 21.619"><defs><style>.a{fill:#79b2ed;}</style></defs><g transform="translate(2.572)"><path class="a" d="M76.744,0a7.912,7.912,0,0,0-7.9,7.9V8.76h1.607V7.9a6.3,6.3,0,1,1,12.591,0V8.76h1.607V7.9A7.912,7.912,0,0,0,76.744,0Z" transform="translate(-68.841)"/></g><g transform="translate(0 7.957)"><path class="a" d="M12.435,188.431H10.452a2.521,2.521,0,0,0-2.518,2.518v3.67a2.521,2.521,0,0,0,2.518,2.518h1.982a.8.8,0,0,0,.8-.8v-7.1A.8.8,0,0,0,12.435,188.431Zm-.8,7.1H10.452a.9.9,0,0,1-.911-.911v-3.67a.9.9,0,0,1,.911-.911h1.179Z" transform="translate(-7.934 -188.431)"/></g><g transform="translate(15.645 7.957)"><path class="a" d="M381.238,188.431h-1.982a.8.8,0,0,0-.8.8v7.1a.8.8,0,0,0,.8.8h1.982a2.521,2.521,0,0,0,2.518-2.518v-3.67A2.521,2.521,0,0,0,381.238,188.431Zm.911,6.188a.9.9,0,0,1-.911.911h-1.178v-5.492h1.178a.9.9,0,0,1,.911.911Z" transform="translate(-378.452 -188.431)"/></g><g transform="translate(13.154 15.86)"><path class="a" d="M323.627,375.594a2.038,2.038,0,0,1-2.036,2.036h-2.143v1.607h2.143a3.648,3.648,0,0,0,3.644-3.643Z" transform="translate(-319.448 -375.594)"/></g><g transform="translate(8.091 15.78)"><path class="a" d="M205.378,376.6a2.852,2.852,0,1,0-.773,2.041A2.771,2.771,0,0,0,205.378,376.6Zm-1.935.93a1.328,1.328,0,0,1-.958.4,1.344,1.344,0,0,1-1.339-1.313,1.313,1.313,0,0,1,2.625,0c0,.012,0,.024,0,.037A1.179,1.179,0,0,1,203.443,377.528Z" transform="translate(-199.538 -373.697)"/></g></svg>