<svg xmlns="http://www.w3.org/2000/svg" width="35.002" height="48.295" viewBox="0 0 35.002 48.295"><defs><style>.a{fill:#ff36bd;}.b{fill:#dc24a0;}.c{fill:#ffbd45;}.d{fill:#fba722;}.e{fill:#f3802c;}.f{fill:#ee6e0c;}.g{fill:#fdf2f3;}.h{fill:#ebdad4;}</style></defs><g transform="translate(0 0)"><path class="a" d="M793.671,295.6l1.141.269,3.706,10.647a.49.49,0,0,1-.514.649l-5.194-.544a.491.491,0,0,0-.394.137l-3.734,3.652a.489.489,0,0,1-.693,0,.5.5,0,0,1-.115-.185l-3.73-10.716.538-.791Z" transform="translate(-765.907 -262.259)"/><path class="b" d="M784.061,299.287l-.754-2.165,10.668-3.628.751,2.159A19.578,19.578,0,0,1,784.061,299.287Z" transform="translate(-765.821 -262.043)"/><path class="a" d="M771.313,295.6l-1.141.269-3.706,10.647a.491.491,0,0,0,.514.649l5.194-.544a.489.489,0,0,1,.394.137l3.735,3.652a.489.489,0,0,0,.808-.189l3.73-10.716-.539-.791Z" transform="translate(-764.089 -262.259)"/><path class="b" d="M781.265,299.287l.754-2.165-10.668-3.628-.751,2.159A19.582,19.582,0,0,0,781.265,299.287Z" transform="translate(-764.516 -262.043)"/><path class="c" d="M781.324,292.289c-17.479,0-17.5-16.858-17.479-17.15a17.5,17.5,0,0,1,34.958,0C798.818,275.432,798.825,292.289,781.324,292.289Z" transform="translate(-763.822 -258.443)"/><path class="d" d="M781.322,293.669a17.5,17.5,0,0,1-17.479-16.619q-.021.437-.022.882a17.5,17.5,0,1,0,35,0c0-.3-.007-.59-.022-.882a17.5,17.5,0,0,1-17.479,16.619Z" transform="translate(-763.82 -260.354)"/><path class="e" d="M781.751,289.091c-13.759,0-13.778-13.225-13.759-13.517a13.788,13.788,0,0,1,27.518,0C795.528,275.865,795.538,289.091,781.751,289.091Z" transform="translate(-764.248 -258.878)"/><path class="f" d="M781.747,289.955a13.787,13.787,0,0,1-13.758-12.9q-.028.437-.029.882a13.787,13.787,0,0,0,27.574,0h0c0-.3-.011-.59-.029-.882A13.787,13.787,0,0,1,781.747,289.955Z" transform="translate(-764.245 -260.354)"/><path class="g" d="M783.705,270.456l1.286,2.6a1.409,1.409,0,0,0,1.06.77l2.871.418a1.407,1.407,0,0,1,.78,2.4l-2.081,2.028a1.409,1.409,0,0,0-.4,1.245l.491,2.863a2.454,2.454,0,0,1-.075.754h-1.968l-3.23-1.814-3.23,1.814-1.952.039a2.469,2.469,0,0,1-.09-.793l.491-2.863a1.406,1.406,0,0,0-.4-1.245l-2.081-2.028a1.408,1.408,0,0,1,.78-2.4l2.871-.418a1.406,1.406,0,0,0,1.06-.77l1.286-2.6a1.407,1.407,0,0,1,2.54,0Z" transform="translate(-764.942 -259.595)"/><g transform="translate(12.308 21.28)"><path class="h" d="M782.5,282.216l-4.966,2.61a1.409,1.409,0,0,0,1.829.793,1.293,1.293,0,0,0,.138-.063l2.572-1.352a1.409,1.409,0,0,1,1.31,0l2.572,1.352a1.411,1.411,0,0,0,1.9-.592,1.379,1.379,0,0,0,.063-.138l-4.966-2.61A.488.488,0,0,0,782.5,282.216Z" transform="translate(-777.537 -282.159)"/></g></g></svg>