<?xml version="1.0" encoding="utf-8"?>
<!-- Generator: Adobe Illustrator 26.0.3, SVG Export Plug-In . SVG Version: 6.00 Build 0)  -->
<svg version="1.1" id="Camada_1" xmlns="http://www.w3.org/2000/svg" xmlns:xlink="http://www.w3.org/1999/xlink" x="0px" y="0px"
	 viewBox="0 0 86 22.78" style="enable-background:new 0 0 86 22.78;" xml:space="preserve">
<style type="text/css">
	.st0{fill-rule:evenodd;clip-rule:evenodd;fill:#FFFFFF;}
	.st1{fill-rule:evenodd;clip-rule:evenodd;fill:#DB0F15;}
</style>
<g id="Grupo_3358" transform="translate(-308.249 180.679)">
	<path id="Caminho_1743" class="st0" d="M388.57-171.37c-0.03,0.05-0.06,0.1-0.08,0.15c-0.92,2.31-1.83,4.62-2.75,6.93
		c-0.27,0.68-0.57,1.36-0.82,2.05c-0.08,0.32-0.37,0.54-0.7,0.54c-1.19,0.01-2.38,0.01-3.57,0c-0.36-0.01-0.68-0.25-0.78-0.6
		c-1.1-2.62-2.22-5.22-3.33-7.84c-0.17-0.4-0.31-0.81-0.51-1.23v12.59c0,0.51-0.09,0.66-0.59,0.68c-1.01,0.05-2.03,0.06-3.04,0.07
		c-0.35,0.01-0.71-0.01-1.06-0.05c-0.49-0.06-0.55-0.14-0.55-0.62v-21.42c0-0.44,0.1-0.56,0.54-0.61c0.31-0.04,0.61-0.06,0.92-0.06
		c1.11,0,2.22-0.01,3.33,0.01c0.37,0.01,0.74,0.07,1.09,0.18c0.2,0.07,0.36,0.22,0.46,0.42c1.18,2.76,2.36,5.52,3.51,8.3
		c0.67,1.63,1.28,3.3,1.91,4.92c0-0.01,0.03-0.08,0.06-0.15c0.88-2.24,1.74-4.48,2.64-6.71c0.85-2.1,1.75-4.19,2.6-6.29
		c0.11-0.36,0.45-0.62,0.83-0.62c0.58-0.04,1.16-0.06,1.74-0.06c0.76-0.01,1.51-0.01,2.26,0.01c0.28,0.02,0.56,0.06,0.83,0.13
		c0.23,0.03,0.38,0.24,0.35,0.47c0,0,0,0,0,0c-0.01,0.76,0,1.53,0,2.29v19.15c0,0.47-0.1,0.63-0.56,0.65
		c-1,0.05-1.99,0.06-2.99,0.07c-0.39,0-0.78-0.02-1.17-0.06c-0.43-0.05-0.51-0.15-0.51-0.6c0-4.14,0-8.28,0-12.41v-0.28
		L388.57-171.37z"/>
	<path id="Caminho_1744" class="st0" d="M346.88-175.86h-2.61c-0.84,0-1.67,0-2.51,0c-0.36,0-0.47-0.09-0.53-0.44
		c-0.04-0.22-0.06-0.45-0.06-0.68c-0.01-0.95-0.01-1.89,0-2.84c0.01-0.18,0.02-0.36,0.05-0.54c0.04-0.35,0.12-0.42,0.47-0.42h15.58
		c0.36,0,0.45,0.07,0.49,0.43s0.05,0.73,0.05,1.09c-0.01,0.94-0.02,1.89-0.05,2.83c-0.02,0.46-0.17,0.57-0.62,0.57h-5
		c0,0.11-0.01,0.2-0.01,0.29c0,5.6,0,11.2,0,16.8c0,0.53-0.08,0.66-0.61,0.69c-1,0.05-2.01,0.06-3.02,0.07
		c-0.39,0-0.78-0.02-1.17-0.07c-0.35-0.04-0.44-0.16-0.44-0.52L346.88-175.86L346.88-175.86z"/>
	<path id="Caminho_1745" class="st1" d="M321.5-180.77c4.1,0,8.2,0.01,12.3-0.01c0.71,0.01,1.28,0.56,1.31,1.27
		c-0.02,0.81,0,1.62-0.01,2.43c-0.04,0.6-0.49,1.09-1.09,1.16c-0.31,0.03-0.63,0.05-0.95,0.05c-7.88,0-15.77,0-23.65,0
		c-0.56,0.06-1.11-0.22-1.39-0.71c-0.09-0.18-0.14-0.37-0.14-0.57c-0.02-0.79-0.01-1.58-0.01-2.37c0.01-0.69,0.57-1.25,1.26-1.25
		L321.5-180.77z"/>
	<path id="Caminho_1746" class="st0" d="M361.29-169.4v-10.69c0-0.46,0.08-0.58,0.55-0.62c0.42-0.04,0.85-0.07,1.28-0.07
		c0.9,0.01,1.8,0.03,2.7,0.06c0.12,0.01,0.23,0.03,0.35,0.07c0.23,0.04,0.4,0.26,0.37,0.49c-0.01,1.38,0,2.76,0,4.15v17.27
		c0,0.5-0.09,0.64-0.58,0.67c-1.01,0.05-2.03,0.06-3.05,0.07c-0.38,0-0.76-0.02-1.14-0.07c-0.39-0.05-0.47-0.16-0.47-0.55
		L361.29-169.4z"/>
	<path id="Caminho_1747" class="st1" d="M324.21-171.82c0.1,0,0.18-0.01,0.26-0.01c3.08,0,6.17,0,9.25,0
		c0.62-0.06,1.19,0.34,1.35,0.94c0.03,0.13,0.05,0.27,0.04,0.4c0,0.77,0.01,1.55-0.01,2.32c-0.01,0.65-0.54,1.18-1.19,1.2
		c-3.18,0.01-6.37,0.01-9.55,0.01c-0.05,0-0.09-0.01-0.15-0.01L324.21-171.82z"/>
	<path id="Caminho_1748" class="st1" d="M324.21-158.03v-4.84c0.1-0.01,0.19-0.01,0.28-0.01c3.07,0,6.15,0,9.22,0
		c0.62-0.07,1.2,0.32,1.36,0.92c0.04,0.13,0.05,0.26,0.05,0.4c0,0.79,0.01,1.58-0.01,2.37c-0.05,0.63-0.54,1.12-1.17,1.17
		c-3.19,0-6.38,0-9.57,0C324.31-158.02,324.27-158.03,324.21-158.03z"/>
	<path id="Caminho_1749" class="st1" d="M318.78-162.87v4.85h-9.61c-0.7,0.01-1.28-0.55-1.29-1.25c0-0.01,0-0.03,0-0.04
		c0-0.78,0-1.56,0-2.35c0.01-0.66,0.54-1.2,1.21-1.23c3.16,0,6.33,0,9.49,0C318.64-162.88,318.7-162.87,318.78-162.87z"/>
	<path id="Caminho_1750" class="st1" d="M318.77-166.97h-0.33c-3.07,0-6.14-0.01-9.22,0.01c-0.75,0-1.35-0.6-1.36-1.34
		c0-0.01,0-0.02,0-0.03c0.04-0.75,0.01-1.51,0.01-2.26c0.01-0.66,0.54-1.2,1.2-1.23c3.18-0.01,6.36-0.01,9.54-0.01
		c0.04,0,0.09,0.01,0.15,0.01V-166.97z"/>
</g>
</svg>
